<svg
    xmlns="http://www.w3.org/2000/svg" 
    xmlns:xlink="http://www.w3.org/1999/xlink"
    width="16px"
    height="16px"
    viewBox="0 0 24 24">
    <g transform="scale(0.8, 0.7)">
        <path 
            d="M9 4h6v8h4.84L12 19.84L4.16 12H9V4z"
            fill="#6696FF"
            transform="translate(-4, -2)"
        />
        <path 
            d="M9 4h6v8h4.84L12 19.84L4.16 12H9V4z"
            fill="#6696FF"
            transform="translate(10, -2)"
        />
    </g>
    <g transform="scale(1, 0.5)">
        <g transform="translate(0, 24)">
            <ellipse
                cx="12"
                cy="12"
                rx="11"
                ry="11"
                fill="#3E77E0"
                stroke="#001133"
                stroke-width="1.5"
            />
            <g transform="translate(-4.75, -2.5)">
                <g transform="scale(1.4, 1.2)">
                    <path
                        fill="#FFFFFF"
                        d="M9 7v10h2v-4h2a2 2 0 0 0 2-2V9a2 2 0 0 0-2-2H9zm2 2h2v2h-2V9z"
                    />
                </g>
            </g>
        </g>
    </g>
</svg>
