<svg
    xmlns="http://www.w3.org/2000/svg"
    aria-hidden="true"
    width="16px"
    height="16px"
    style="-ms-transform:rotate(360deg);-webkit-transform:rotate(360deg)"
    viewBox="0 0 24 24"
    transform="rotate(360)">
    <ellipse
        cx="12"
        cy="12"
        rx="11"
        ry="11"
        fill="#3060AD"
        stroke="#B2CCFF"
        stroke-width="1.5"
    />
    <g transform="translate(-6, -4.75)">
        <g transform="scale(1.5, 1.4)">
			<path fill="none" stroke="#FFFFFF" stroke-linecap="round" stroke-linejoin="round" stroke-width="2" d="M10 15a1 1 0 0 0 1 1h2a1 1 0 0 0 1-1v-2a1 1 0 0 0-1-1h-2a1 1 0 0 1-1-1V9a1 1 0 0 1 1-1h2a1 1 0 0 1 1 1"/>
        </g>
    </g>
</svg>
