<svg
    xmlns="http://www.w3.org/2000/svg"
    aria-hidden="true"
    width="16px"
    height="16px"
    style="-ms-transform:rotate(360deg);-webkit-transform:rotate(360deg)"
    viewBox="0 0 24 24"
    transform="rotate(360)">
    <rect
        x="2.5"
        y="2.5"
        width="19"
        height="19"
        fill="#C63737"
        stroke="#330000"
        stroke-width="1.5"
        rx="6"
        ry="6"
        transform="rotate(45, 12, 12)"
    />
    <g transform="translate(4.8, 4.8)">
        <g transform="scale(0.55,0.55)">
            <path
                d="M12.031 1.063c-.321.001-.676.145-1 .468L5.312 8H1c-.551 0-1 .449-1 1v8c0 .551.449 1 1 1h4.313L11 24.438c1 1 2 .488 2-.875V2.28c0-.791-.433-1.222-.969-1.219zm7.25 2a1 1 0 0 0-.218 1.906A8.963 8.963 0 0 1 24 13c0 3.524-2 6.55-4.938 8.031a1 1 0 1 0 .875 1.782C23.53 21 26 17.288 26 13s-2.471-8-6.063-9.813a1 1 0 0 0-.562-.124 1 1 0 0 0-.094 0zm-2.375 3.874a1 1 0 0 0-.406 1.875C18.043 9.771 19 11.29 19 13c0 1.722-.972 3.261-2.531 4.219a1 1 0 1 0 1.062 1.687C19.601 17.636 21 15.476 21 13c0-2.461-1.387-4.633-3.438-5.906A1 1 0 0 0 17 6.937a1 1 0 0 0-.094 0z"
                fill="white"
            />
        </g>
    </g>
</svg>
