<svg
    xmlns="http://www.w3.org/2000/svg"
    aria-hidden="true"
    width="16px"
    height="16px"
    style="-ms-transform: rotate(360deg); -webkit-transform: rotate(360deg)"
    viewBox="0 0 24 24"
    transform="rotate(360)">
    <rect
        x="1"
        y="1"
        width="22"
        height="22"
        fill="#444444"
        stroke="#AAAAAA"
        stroke-width="1.5"
        rx="4"
        ry="12"
    />
    <g transform="scale(0.8,0.8)">
        <path
            transform="translate(3,2)"
            fill="#009900"
            d="M17 16.99c-1.35 0-2.2.42-2.95.8-.65.33-1.18.6-2.05.6-.9 0-1.4-.25-2.05-.6-.75-.38-1.57-.8-2.95-.8s-2.2.42-2.95.8c-.65.33-1.17.6-2.05.6v1.95c1.35 0 2.2-.42 2.95-.8.65-.33 1.17-.6 2.05-.6s1.4.25 2.05.6c.75.38 1.57.8 2.95.8s2.2-.42 2.95-.8c.65-.33 1.18-.6 2.05-.6.9 0 1.4.25 2.05.6.75.38 1.58.8 2.95.8v-1.95c-.9 0-1.4-.25-2.05-.6-.75-.38-1.6-.8-2.95-.8zm0-4.45c-1.35 0-2.2.43-2.95.8-.65.32-1.18.6-2.05.6-.9 0-1.4-.25-2.05-.6-.75-.38-1.57-.8-2.95-.8s-2.2.43-2.95.8c-.65.32-1.17.6-2.05.6v1.95c1.35 0 2.2-.43 2.95-.8.65-.35 1.15-.6 2.05-.6s1.4.25 2.05.6c.75.38 1.57.8 2.95.8s2.2-.43 2.95-.8c.65-.35 1.15-.6 2.05-.6s1.4.25 2.05.6c.75.38 1.58.8 2.95.8v-1.95c-.9 0-1.4-.25-2.05-.6-.75-.38-1.6-.8-2.95-.8zm2.95-8.08c-.75-.38-1.58-.8-2.95-.8s-2.2.42-2.95.8c-.65.32-1.18.6-2.05.6-.9 0-1.4-.25-2.05-.6-.75-.37-1.57-.8-2.95-.8s-2.2.42-2.95.8c-.65.33-1.17.6-2.05.6v1.93c1.35 0 2.2-.43 2.95-.8.65-.33 1.17-.6 2.05-.6s1.4.25 2.05.6c.75.38 1.57.8 2.95.8s2.2-.43 2.95-.8c.65-.32 1.18-.6 2.05-.6.9 0 1.4.25 2.05.6.75.38 1.58.8 2.95.8V5.04c-.9 0-1.4-.25-2.05-.58zM17 8.09c-1.35 0-2.2.43-2.95.8-.65.35-1.15.6-2.05.6s-1.4-.25-2.05-.6c-.75-.38-1.57-.8-2.95-.8s-2.2.43-2.95.8c-.65.35-1.15.6-2.05.6v1.95c1.35 0 2.2-.43 2.95-.8.65-.32 1.18-.6 2.05-.6s1.4.25 2.05.6c.75.38 1.57.8 2.95.8s2.2-.43 2.95-.8c.65-.32 1.18-.6 2.05-.6.9 0 1.4.25 2.05.6.75.38 1.58.8 2.95.8V9.49c-.9 0-1.4-.25-2.05-.6-.75-.38-1.6-.8-2.95-.8z"
        />
        <path
            transform="translate(3,4)"
            fill="#00CC00"
            d="M17 16.99c-1.35 0-2.2.42-2.95.8-.65.33-1.18.6-2.05.6-.9 0-1.4-.25-2.05-.6-.75-.38-1.57-.8-2.95-.8s-2.2.42-2.95.8c-.65.33-1.17.6-2.05.6v1.95c1.35 0 2.2-.42 2.95-.8.65-.33 1.17-.6 2.05-.6s1.4.25 2.05.6c.75.38 1.57.8 2.95.8s2.2-.42 2.95-.8c.65-.33 1.18-.6 2.05-.6.9 0 1.4.25 2.05.6.75.38 1.58.8 2.95.8v-1.95c-.9 0-1.4-.25-2.05-.6-.75-.38-1.6-.8-2.95-.8zm0-4.45c-1.35 0-2.2.43-2.95.8-.65.32-1.18.6-2.05.6-.9 0-1.4-.25-2.05-.6-.75-.38-1.57-.8-2.95-.8s-2.2.43-2.95.8c-.65.32-1.17.6-2.05.6v1.95c1.35 0 2.2-.43 2.95-.8.65-.35 1.15-.6 2.05-.6s1.4.25 2.05.6c.75.38 1.57.8 2.95.8s2.2-.43 2.95-.8c.65-.35 1.15-.6 2.05-.6s1.4.25 2.05.6c.75.38 1.58.8 2.95.8v-1.95c-.9 0-1.4-.25-2.05-.6-.75-.38-1.6-.8-2.95-.8zm2.95-8.08c-.75-.38-1.58-.8-2.95-.8s-2.2.42-2.95.8c-.65.32-1.18.6-2.05.6-.9 0-1.4-.25-2.05-.6-.75-.37-1.57-.8-2.95-.8s-2.2.42-2.95.8c-.65.33-1.17.6-2.05.6v1.93c1.35 0 2.2-.43 2.95-.8.65-.33 1.17-.6 2.05-.6s1.4.25 2.05.6c.75.38 1.57.8 2.95.8s2.2-.43 2.95-.8c.65-.32 1.18-.6 2.05-.6.9 0 1.4.25 2.05.6.75.38 1.58.8 2.95.8V5.04c-.9 0-1.4-.25-2.05-.58zM17 8.09c-1.35 0-2.2.43-2.95.8-.65.35-1.15.6-2.05.6s-1.4-.25-2.05-.6c-.75-.38-1.57-.8-2.95-.8s-2.2.43-2.95.8c-.65.35-1.15.6-2.05.6v1.95c1.35 0 2.2-.43 2.95-.8.65-.32 1.18-.6 2.05-.6s1.4.25 2.05.6c.75.38 1.57.8 2.95.8s2.2-.43 2.95-.8c.65-.32 1.18-.6 2.05-.6.9 0 1.4.25 2.05.6.75.38 1.58.8 2.95.8V9.49c-.9 0-1.4-.25-2.05-.6-.75-.38-1.6-.8-2.95-.8z"
        />
    </g>
</svg>
