<svg
    xmlns="http://www.w3.org/2000/svg"
    width="16px"
    height="16px"
    viewBox="0 0 24 24">
    <rect
        x="1"
        y="1"
        width="22"
        height="22"
        fill="#444444"
        stroke="#AAAAAA"
        stroke-width="1.5"
        rx="2"
        ry="2"
    />
    <g transform="translate(3.5, 3.5)">
        <path
            fill="#88FFFF"
            d="M8 3a2 2 0 0 0-2 2v4a2 2 0 0 1-2 2H3v2h1a2 2 0 0 1 2 2v4c0 1.105.928 1.732 2 2h2v-2H8v-5a2 2 0 0 0-2-2 2 2 0 0 0 2-2V5h2V3m6 0a2 2 0 0 1 2 2v4a2 2 0 0 0 2 2h1v2h-1a2 2 0 0 0-2 2v4c0 1.105-.928 1.732-2 2h-2v-2h2v-5a2 2 0 0 1 2-2 2 2 0 0 1-2-2V5h-2V3h2z"
            transform="scale(0.7, 0.7)"
        />
    </g>
</svg>
