<svg
    xmlns="http://www.w3.org/2000/svg"
    aria-hidden="true"
    width="16px"
    height="16px"
    style="-ms-transform: rotate(360deg); -webkit-transform: rotate(360deg)"
    viewBox="0 0 24 24"
    transform="rotate(360)">
    <rect
        x="1"
        y="1"
        width="22"
        height="22"
        fill="#444444"
        stroke="#AAAAAA"
        stroke-width="1.5"
        rx="5"
        ry="12"
    />
    <g transform="translate(1.1,1.1) scale(0.9,0.9)">
        <path
            fill="#FFFFFF"
            d="M 13.5 4 a 1.5 1.5 0 1 0 0 3 a 1.5 1.5 0 0 0 0 -3 z m -0.4 4.8 c -1.2 0.1 -4.4 2.7 -4.4 2.7 c -0.2 0.1 -0.1 0.1 0 0.4 c 0.2 0.3 0.1 0.3 0.3 0.2 c 0.2 -0.1 0.5 -0.3 1.1 -0.7 c 2.1 -1.4 0.3 1.8 -0.6 7.1 c -0.4 2.6 2 1.3 2.6 0.9 a 155.9 155.9 0 0 0 2.4 -1.6 c 0.2 -0.2 0.1 -0.3 -0.1 -0.5 c -0.1 -0.2 -0.2 -0.1 -0.2 -0.1 c -0.6 0.4 -1.8 1.3 -2 0.8 c -0.2 -0.6 1 -4.5 1.7 -7.2 c 0.1 -0.6 0.4 -2 -0.8 -1.9 z"
        />
    </g>
</svg>
