<svg
    xmlns="http://www.w3.org/2000/svg"
    aria-hidden="true"
    width="16px"
    height="16px"
    style="-ms-transform:rotate(360deg);-webkit-transform:rotate(360deg)"
    viewBox="0 0 24 24"
    transform="rotate(360)">
    <rect
        x="1"
        y="1"
        width="22"
        height="22"
        fill="#3060AD"
        stroke="#B2CCFF"
        stroke-width="1.5"
        rx="5"
        ry="12"
    />
    <g transform="translate(4,3.3)">
        <path
            d="M1041.282 793.277c-11.946-19.626-26.879-32.213-44.799-37.762-37.166-11.894-78.649-11.087-103.68 16-27.979 37.062-28.68 92.604 0 124.8 43.744 41.293 121.007 20.886 148.479-19.841v-83.197zm98.559-331.515C1179.946 498.455 1200 550.507 1200 617.92v389.114c-.653 10.752-9.477 19.059-19.199 19.199h-120.317c-10.753-.65-19.062-9.479-19.2-19.199v-11.521c-40.166 30.48-86.643 44.523-133.117 44.801-52.74-1.544-98.588-20.205-134.398-53.119-44.099-44.131-61.091-98.39-61.438-154.238 1.735-61.103 19.384-116.096 62.078-155.517 39.387-33.317 85.968-48.972 133.759-49.279 52.905 0 97.278 14.079 133.117 42.239v-37.12c0-58.879-30.72-88.318-92.158-88.318-47.785 0-91.305 20.053-130.558 60.159-10.422 9.223-25.115 5.606-30.72-5.12l-47.359-81.919c-4.267-8.533-2.986-16.213 3.84-23.039 29.014-29.014 62.719-50.986 101.118-65.919 95.159-33.016 222.167-31.196 294.393 32.638zm-787.188-63.999l-84.479 302.075h170.237l-85.758-302.075zm351.993 595.191c1.706 5.12 2.562 8.533 2.562 10.24-.359 11.383-9.095 19.068-19.2 19.197H536.971c-9.387 0-15.359-4.691-17.92-14.079l-42.238-148.478H229.775l-42.239 148.478c-2.56 9.388-8.96 14.079-19.2 14.079H19.858c-15.959-1.327-21.994-11.124-19.199-24.317l250.876-824.308c3.414-9.387 9.813-14.08 19.2-14.08h165.119c9.386 0 15.784 4.693 19.198 14.08l249.594 819.188z"
            fill="white"
            transform="scale(0.013, 0.014)"
        />
    </g>
</svg>
