<svg
    xmlns="http://www.w3.org/2000/svg"
    width="16px"
    height="16px"
    viewBox="0 0 24 24">
    <rect
        x="1"
        y="1"
        width="22"
        height="22"
        fill="#444444"
        stroke="#AAAAAA"
        stroke-width="1.5"
        rx="2"
        ry="2"
    />
    <g transform="translate(4,3.5) scale(0.7,0.7)">
        <path
            fill="#8888FF"
            d="M10.5 5A8.5 8.5 0 0 0 2 13.5a8.5 8.5 0 0 0 8.5 8.5a8.5 8.5 0 0 0 8.5-8.5A8.5 8.5 0 0 0 10.5 5m3 8a2.5 2.5 0 0 1-2.5-2.5A2.5 2.5 0 0 1 13.5 8a2.5 2.5 0 0 1 2.5 2.5a2.5 2.5 0 0 1-2.5 2.5m6-11A2.5 2.5 0 0 0 17 4.5A2.5 2.5 0 0 0 19.5 7A2.5 2.5 0 0 0 22 4.5A2.5 2.5 0 0 0 19.5 2"
        />
    </g>
</svg>
