<svg
    xmlns="http://www.w3.org/2000/svg"
    width="16px"
    height="16px"
    viewBox="0 0 24 24">
    <rect
        x="1"
        y="1"
        width="22"
        height="22"
        fill="#444444"
        stroke="#AAAAAA"
        stroke-width="1.5"
        rx="5"
        ry="12"
    />
    <g transform="translate(5.2,4.8) scale(0.9,0.9)">
        <path
            fill="#FFFFFF"
            d="M 9 11 H 6 c 0 -3 1.6 -4 2.7 -4.6 c 0.4 -0.2 0.7 -0.4 0.9 -0.6 c 0.5 -0.5 0.3 -1.2 0.2 -1.4 c -0.3 -0.7 -1 -1.4 -2.3 -1.4 C 5.4 3 5 4.9 5 5.3 l -3 -0.4 C 2.2 3.2 3.7 0 7.5 0 c 2.3 0 4.3 1.3 5.1 3.2 c 0.7 1.7 0.4 3.5 -0.8 4.7 c -0.5 0.5 -1.1 0.8 -1.6 1.1 c -0.9 0.5 -1.2 1 -1.2 2 z"
        />
        <path
            fill="#FFFFFF"
            d="M 9.5 14 a 2 2 0 1 1 -4 0 A 2 2 0 0 1 9.5 14 z"
        />
    </g>
</svg>
