<svg
    xmlns="http://www.w3.org/2000/svg"
    xmlns:xlink="http://www.w3.org/1999/xlink"
    width="16px"
    height="16px"
    viewBox="0 0 24 24">
    <defs>
        <linearGradient id="grad1" x1="0%" y1="0%" x2="100%" y2="100%">
            <stop offset="0%" style="stop-color:rgb(255,255,255);stop-opacity:1" />
            <stop offset="100%" style="stop-color:rgb(20,20,20);stop-opacity:1" />
        </linearGradient>
    </defs>
    <rect
        x="2"
        y="2"
        width="20"
        height="20"
        fill="url(#grad1)"
        rx="2"
        ry="2"
    />
    <path
        d="M19 3H5c-1.11 0-2 .89-2 2v14a2 2 0 0 0 2 2h14a2 2 0 0 0 2-2V5a2 2 0 0 0-2-2m0 2v14H5V5h14z"
        fill="#FFFFFF"
        stroke="#FFFFFF"
        stroke-width="1"
    />
    <g transform="scale(1.1, 1.1)">
        <path
            d="M19 3H5c-1.11 0-2 .89-2 2v14a2 2 0 0 0 2 2h14a2 2 0 0 0 2-2V5a2 2 0 0 0-2-2m0 2v14H5V5h14z"
            fill="#0000FF"
            stroke="#0000FF"
            stroke-width="0.5"
            transform="translate(-1.2, -1.2)"
        />
    </g>
</svg>
