<svg
    xmlns="http://www.w3.org/2000/svg"
    xmlns:xlink="http://www.w3.org/1999/xlink"
    width="16px"
    height="16px"
    viewBox="0 0 24 24">
    <rect
        x="2"
        y="2"
        width="20"
        height="20"
        fill="#FFFFFF"
        rx="2"
        ry="2"
    />
	<g transform="scale(0.6) translate(8, 8)">
	<path
        d="M14.85 13.1l-.85.6V16h-4v-2.3l-.85-.6A4.997 4.997 0 0 1 7 9c0-2.76 2.24-5 5-5s5 2.24 5 5c0 1.63-.8 3.16-2.15 4.1z"
        fill-rule="evenodd"
        fill="#FFFFBB"
    />
    <path
        d="M9 21c0 .55.45 1 1 1h4c.55 0 1-.45 1-1v-1H9v1zm3-19C8.14 2 5 5.14 5 9c0 2.38 1.19 4.47 3 5.74V17c0 .55.45 1 1 1h6c.55 0 1-.45 1-1v-2.26c1.81-1.27 3-3.36 3-5.74c0-3.86-3.14-7-7-7zm2.85 11.1l-.85.6V16h-4v-2.3l-.85-.6A4.997 4.997 0 0 1 7 9c0-2.76 2.24-5 5-5s5 2.24 5 5c0 1.63-.8 3.16-2.15 4.1z"
        fill="#000000"
    />
	</g>
	<rect
		x="3"
		y="3"
		width="18"
		height="18"
		fill-opacity="0"
		stroke="#d779c9"
		stroke-width="2"
		stroke-linejoin="round"
	/>
	<rect
		x="2"
		y="2"
		width="20"
		height="20"
		fill-opacity="0"
		stroke="#8d2a7f"
		stroke-width="1.5"
		stroke-linejoin="round"
	/>
</svg>
