<svg
    xmlns="http://www.w3.org/2000/svg"
    xmlns:xlink="http://www.w3.org/1999/xlink"
    width="16px"
    height="16px"
    viewBox="0 0 1024 1024">
	<!-- <path
        d="M 19 20 H 4 a 2 2 0 0 1 -2 -2 l 0 -12 c 0 -1.1 0.9 -2 2 -2 h 6 l 2 2 h 7 a 2 2 0 0 1 2 2 V 8 L 4 8 v 10 L 6.1 10 h 17.1 l -2.3 8.5 a 2 2 0 0 1 -1.9 1.5 z"
        fill="rgb(200, 190, 50)"
    /> -->
    <path
        d="M928 444H820V330.4c0-17.7-14.3-32-32-32H473L355.7 186.2a8.15 8.15 0 0 0-5.5-2.2H96c-17.7 0-32 14.3-32 32v592c0 17.7 14.3 32 32 32h698c13 0 24.8-7.9 29.7-20l134-332c1.5-3.8 2.3-7.9 2.3-12 0-17.7-14.3-32-32-32zm-180 0H238c-13 0-24.8 7.9-29.7 20L136 643.2V256h188.5l119.6 114.4H748V444z"
        fill="#C4A000"
    />
</svg>
