<svg xmlns="http://www.w3.org/2000/svg"
    xmlns:xlink="http://www.w3.org/1999/xlink"
    width="16px"
    height="16px"
    viewBox="0 0 24 24">
    <rect x="2" y="2" width="20" height="20" rx="2" ry="2" fill="#D3AB81" />
	<path
        d="M20 2H4c-1.1 0-2 .9-2 2v16a2 2 0 0 0 2 2h16c1.11 0 2-.89 2-2V4a2 2 0 0 0-2-2M4 6l2-2h4.9L4 10.9V6m0 7.7L13.7 4h4.9L4 18.6v-4.9M20 18l-2 2h-4.9l6.9-6.9V18m0-7.7L10.3 20H5.4L20 5.4v4.9z"
        fill="#514130"
    />
	<g transform="translate(-7.5, -2.3)">
        <g transform="scale(1.6, 1.2)">
            <path
                fill="#514130"
				fill-opacity="1"
				stroke="#514130"
				stroke-opacity="0.7"
				stroke-width="2"
                d="M9,7V9H11V17H13V9H15V7H9Z"
            />
			<path
				fill="#FFFFFF"
				fill-opacity="1"
                d="M9,7V9H11V17H13V9H15V7H9Z"
            />
        </g>
    </g>
</svg>
