<svg
    xmlns="http://www.w3.org/2000/svg"
    aria-hidden="true"
    width="16px"
    height="16px"
    style="-ms-transform:rotate(360deg);-webkit-transform:rotate(360deg)"
    viewBox="1 1 22 22"
    transform="rotate(360)">
    <ellipse
        cx="12"
        cy="12"
        rx="5"
        ry="5"
        fill="#DD0000"
    />
	<path 
        d="M21 16.5c0 .38-.21.71-.53.88l-7.9 4.44c-.16.12-.36.18-.57.18c-.21 0-.41-.06-.57-.18l-7.9-4.44A.991.991 0 0 1 3 16.5v-9c0-.38.21-.71.53-.88l7.9-4.44c.16-.12.36-.18.57-.18c.21 0 .41.06.57.18l7.9 4.44c.32.17.53.5.53.88v9M12 4.15L6.04 7.5L12 10.85l5.96-3.35L12 4.15M5 15.91l6 3.38v-6.71L5 9.21v6.7m14 0v-6.7l-6 3.37v6.71l6-3.38z"
        fill="#FFCCCC"
		stroke-width="0.75"
		stroke="#550000"
		stroke-linecap="round"
    />
</svg>
